<?xml version="1.0" encoding="iso-8859-1"?>
<!-- Uploaded to: SVG Repo, www.svgrepo.com, Generator: SVG Repo Mixer Tools -->
<svg height="800px" width="800px" version="1.1" id="Layer_1" xmlns="http://www.w3.org/2000/svg" xmlns:xlink="http://www.w3.org/1999/xlink" 
	 viewBox="0 0 512 512" xml:space="preserve">
<path style="fill:#A3E5BD;" d="M223.446,122.435h156.739L366.994,244.87l-25.569,237.328C339.598,499.151,325.335,512,308.341,512
	H116.366c-16.994,0-31.258-12.849-33.084-29.803L44.522,122.435H223.446z"/>
<path style="fill:#F7DB4F;" d="M291.506,467.478H131.45c-11.437,0-21.012-8.666-22.151-20.046L89.043,244.87h244.87l-20.256,202.563
	C312.519,458.812,302.943,467.478,291.506,467.478z"/>
<path style="fill:#EDB311;" d="M333.913,244.87l-20.256,202.563c-1.138,11.38-10.714,20.046-22.151,20.046h-89.043
	c11.437,0,21.012-8.666,22.151-20.046L244.87,244.87H333.913z"/>
<path style="fill:#C1F4D3;" d="M223.446,122.435h156.739L366.994,244.87l-2.399,22.261H60.111L44.522,122.435H223.446z"/>
<path style="fill:#FF4800;" d="M345.462,0c67.388,0,122.016,54.816,122.016,122.435S412.85,244.87,345.462,244.87
	s-122.016-54.816-122.016-122.435S278.074,0,345.462,0z"/>
<path style="fill:#EA7C18;" d="M345.462,22.338c55.093,0,99.755,44.814,99.755,100.097s-44.662,100.097-99.755,100.097
	s-99.755-44.814-99.755-100.097S290.369,22.338,345.462,22.338z"/>
<path style="fill:#EDB311;" d="M223.446,122.435L223.446,122.435h156.74L367.203,242.93c-7.056,1.273-14.32,1.94-21.741,1.94
	C278.074,244.87,223.446,190.053,223.446,122.435z"/>
<path style="fill:#F7DB4F;" d="M380.186,122.435l-10.463,97.111c-7.767,1.948-15.892,2.987-24.261,2.987
	c-55.093,0-99.755-44.816-99.755-100.098C245.707,122.435,380.186,122.435,380.186,122.435z"/>
<path style="fill:#DCFFE8;" d="M196.886,253.48c3.398,5.114,2.021,12.025-3.076,15.435l-36.917,24.696
	c-5.098,3.409-11.984,2.028-15.382-3.086l-24.612-37.044c-3.398-5.116-2.021-12.025,3.076-15.436l36.917-24.696
	c5.098-3.409,11.984-2.028,15.382,3.086L196.886,253.48z M271.167,347.648l-42.291-13.468c-5.839-1.859-12.075,1.384-13.929,7.243
	l-13.422,42.436c-1.853,5.859,1.378,12.117,7.217,13.975l42.291,13.468c5.839,1.859,12.075-1.384,13.929-7.241l13.422-42.436
	C280.239,355.764,277.006,349.507,271.167,347.648z"/>
</svg>